<?xml version="1.0" encoding="UTF-8" standalone="no"?>
<!-- Created with Inkscape (http://www.inkscape.org/) -->

<svg
   width="9.615983mm"
   height="8.4666653mm"
   viewBox="0 0 9.615983 8.4666653"
   version="1.1"
   id="svg1"
   xml:space="preserve"
   xmlns:inkscape="http://www.inkscape.org/namespaces/inkscape"
   xmlns:sodipodi="http://sodipodi.sourceforge.net/DTD/sodipodi-0.dtd"
   xmlns="http://www.w3.org/2000/svg"
   xmlns:svg="http://www.w3.org/2000/svg"><sodipodi:namedview
     id="namedview1"
     pagecolor="#ffffff"
     bordercolor="#000000"
     borderopacity="0.25"
     inkscape:showpageshadow="2"
     inkscape:pageopacity="0.0"
     inkscape:pagecheckerboard="0"
     inkscape:deskcolor="#d1d1d1"
     inkscape:document-units="mm"><inkscape:page
       x="-4.4822163e-22"
       y="0"
       width="9.615983"
       height="8.4666653"
       id="page2"
       margin="0"
       bleed="0" /></sodipodi:namedview><defs
     id="defs1" /><g
     inkscape:label="Layer 1"
     inkscape:groupmode="layer"
     id="layer1"
     transform="translate(-73.866034,37.935332)"><path
       d="m 75.950427,-37.365424 c 1.102448,0.827648 2.288258,2.505777 2.723628,3.406358 0.435402,-0.900515 1.621144,-2.578727 2.723627,-3.406358 0.795471,-0.597199 2.084337,-1.059278 2.084337,0.41108 0,0.29365 -0.168364,2.466816 -0.267108,2.819621 -0.34324,1.226594 -1.59399,1.539444 -2.706552,1.350093 1.944738,0.330987 2.439462,1.427335 1.371048,2.523682 -2.029126,2.082181 -2.916443,-0.522426 -3.143911,-1.189821 -0.04168,-0.122349 -0.06118,-0.179585 -0.06147,-0.130916 -3.01e-4,-0.04867 -0.0198,0.0085 -0.06147,0.130916 -0.227366,0.667395 -1.114668,3.272068 -3.14391,1.189821 -1.068429,-1.096347 -0.573723,-2.192762 1.371049,-2.523682 -1.112596,0.189351 -2.363362,-0.1235 -2.706552,-1.350093 -0.09875,-0.352838 -0.267107,-2.526004 -0.267107,-2.819621 0,-1.470358 1.288899,-1.008279 2.084335,-0.41108 z"
       fill="#1185fe"
       id="path1"
       style="fill:#60739f;fill-opacity:1;stroke-width:0.0165792"
       inkscape:export-filename="bluesky-logo.svg"
       inkscape:export-xdpi="96"
       inkscape:export-ydpi="96" /></g></svg>
